<?xml version="1.0" encoding="utf-8"?>
<!-- Generator: Adobe Illustrator 22.0.1, SVG Export Plug-In . SVG Version: 6.00 Build 0)  -->
<svg version="1.1" id="Layer_1" xmlns="http://www.w3.org/2000/svg" xmlns:xlink="http://www.w3.org/1999/xlink" x="0px" y="0px"
	 viewBox="0 0 16 16" style="enable-background:new 0 0 16 16;" xml:space="preserve">
<style type="text/css">
	.st0{display:none;fill:none;stroke:#232323;stroke-width:0.5;stroke-linecap:round;stroke-miterlimit:10;}
	.st1{display:none;opacity:0.5;}
	.st2{display:inline;}
	.st3{fill:none;stroke:#232323;stroke-width:0.65;stroke-linecap:round;stroke-linejoin:round;stroke-miterlimit:10;}
	.st4{display:none;fill:none;stroke:#FFFFFF;stroke-width:0.5;stroke-linecap:round;stroke-miterlimit:10;}
	.st5{display:none;}
	.st6{display:inline;fill:#FF4B55;}
	.st7{display:inline;fill:#73AF00;}
	.st8{display:inline;fill:#FFE15A;}
	.st9{display:inline;fill:#F5F5F5;}
	.st10{fill:#FFE15A;}
	.st11{fill:#41479B;}
	.st12{fill:#F5F5F5;}
	.st13{fill:#FF4B55;}
</style>
<line class="st0" x1="-9.3" y1="0.5" x2="-3.2" y2="6.5"/>
<line class="st0" x1="-3.3" y1="0.5" x2="-9.3" y2="6.5"/>
<g class="st1">
	
		<image style="display:inline;overflow:visible;" width="84" height="79" xlink:href="D50C29C2.png"  transform="matrix(1 0 0 1 -34 -33)">
	</image>
	<g class="st2">
		<line class="st3" x1="5.4" y1="6.3" x2="10.6" y2="6.3"/>
	</g>
</g>
<g class="st1">
	
		<image style="display:inline;overflow:visible;" width="84" height="80" xlink:href="D50C29C5.png"  transform="matrix(1 0 0 1 -34 -32)">
	</image>
	<g class="st2">
		<line class="st3" x1="5.4" y1="8.3" x2="10.6" y2="8.3"/>
	</g>
</g>
<g class="st1">
	
		<image style="display:inline;overflow:visible;" width="84" height="80" xlink:href="D50C29C7.png"  transform="matrix(1 0 0 1 -34 -30)">
	</image>
	<g class="st2">
		<line class="st3" x1="5.4" y1="10.2" x2="10.6" y2="10.2"/>
	</g>
</g>
<line class="st4" x1="5.4" y1="6.3" x2="10.6" y2="6.3"/>
<line class="st4" x1="5.4" y1="8.3" x2="10.6" y2="8.3"/>
<line class="st4" x1="5.4" y1="10.2" x2="10.6" y2="10.2"/>
<g class="st5">
	<path class="st6" d="M11.7,10.8H4.3c-0.1,0-0.1-0.1-0.1-0.1V6c0-0.1,0.1-0.1,0.1-0.1h7.3c0.1,0,0.1,0.1,0.1,0.1v4.7
		C11.8,10.8,11.7,10.8,11.7,10.8z"/>
	<path class="st7" d="M7,5.9H4.3C4.3,5.9,4.2,5.9,4.2,6v4.7c0,0.1,0.1,0.1,0.1,0.1H7L7,5.9L7,5.9z"/>
	<circle class="st8" cx="7" cy="8.3" r="1.2"/>
	<path class="st6" d="M7.4,8v0.5c0,0.2-0.2,0.4-0.4,0.4S6.6,8.7,6.6,8.5V8H7.4 M7.5,7.7h-1c-0.1,0-0.1,0.1-0.1,0.1v0.7
		c0,0.4,0.3,0.7,0.7,0.7c0.4,0,0.7-0.3,0.7-0.7V7.8C7.6,7.8,7.6,7.7,7.5,7.7L7.5,7.7z"/>
	<path class="st9" d="M7.4,8v0.5c0,0.2-0.2,0.4-0.4,0.4S6.6,8.7,6.6,8.5V8H7.4"/>
	<g class="st2">
		<circle class="st10" cx="6.4" cy="7.8" r="0.1"/>
		<circle class="st10" cx="7.5" cy="7.8" r="0.1"/>
		<circle class="st10" cx="6.4" cy="8.3" r="0.1"/>
		<circle class="st10" cx="7.5" cy="8.3" r="0.1"/>
		<circle class="st10" cx="7" cy="7.8" r="0.1"/>
		<circle class="st10" cx="7.4" cy="8.8" r="0.1"/>
		<circle class="st10" cx="6.6" cy="8.8" r="0.1"/>
	</g>
	<g class="st2">
		<path class="st11" d="M7,8.3v0.1c0,0,0,0.1-0.1,0.1c0,0-0.1,0-0.1-0.1V8.3H7"/>
		<path class="st11" d="M7,8v0.1c0,0,0,0.1-0.1,0.1c0,0-0.1,0-0.1-0.1V8H7"/>
		<path class="st11" d="M7,8.6v0.1c0,0,0,0.1-0.1,0.1c0,0-0.1,0-0.1-0.1V8.6H7"/>
		<path class="st11" d="M7.3,8.3v0.1c0,0,0,0.1-0.1,0.1c0,0-0.1,0-0.1-0.1V8.3H7.3"/>
		<path class="st11" d="M6.8,8.3v0.1c0,0,0,0.1-0.1,0.1s-0.1,0-0.1-0.1V8.3H6.8"/>
	</g>
	<g class="st2">
	</g>
	<g class="st2">
	</g>
	<g class="st2">
	</g>
	<g class="st2">
	</g>
	<g class="st2">
	</g>
	<g class="st2">
	</g>
	<g class="st2">
	</g>
	<g class="st2">
	</g>
	<g class="st2">
	</g>
	<g class="st2">
	</g>
	<g class="st2">
	</g>
	<g class="st2">
	</g>
	<g class="st2">
	</g>
	<g class="st2">
	</g>
	<g class="st2">
	</g>
</g>
<g>
	<path class="st11" d="M11.7,10.8H4.3c-0.1,0-0.1-0.1-0.1-0.1V6c0-0.1,0.1-0.1,0.1-0.1h7.3c0.1,0,0.1,0.1,0.1,0.1v4.7
		C11.8,10.8,11.7,10.8,11.7,10.8z"/>
	<path class="st12" d="M11.8,6c0-0.1-0.1-0.1-0.1-0.1h-0.6L8.7,7.4V5.9H7.3v1.6L4.9,5.9H4.3C4.3,5.9,4.2,5.9,4.2,6v0.3l2.1,1.4H4.2
		V9h2.1l-2.1,1.4v0.3c0,0.1,0.1,0.1,0.1,0.1h0.6l2.4-1.6v1.6h1.3V9.2l2.4,1.6h0.6c0.1,0,0.1-0.1,0.1-0.1v-0.3L9.7,9h2.1V7.7H9.7
		l2.1-1.4V6z"/>
	<g>
		<polygon class="st13" points="11.8,8 8.4,8 8.4,5.9 7.6,5.9 7.6,8 4.2,8 4.2,8.7 7.6,8.7 7.6,10.8 8.4,10.8 8.4,8.7 11.8,8.7 		
			"/>
		<path class="st13" d="M6.9,9l-2.7,1.7c0,0.1,0.1,0.1,0.1,0.1h0.2L7.3,9L6.9,9L6.9,9z"/>
		<path class="st13" d="M9.3,9H8.9l2.8,1.8c0.1,0,0.1-0.1,0.1-0.1v-0.1L9.3,9z"/>
		<path class="st13" d="M4.2,6.1l2.4,1.6h0.5L4.3,5.9c0,0-0.1,0.1-0.1,0.1V6.1z"/>
		<path class="st13" d="M9.1,7.7L11.8,6c0-0.1-0.1-0.1-0.1-0.1h-0.2L8.7,7.7H9.1z"/>
	</g>
	<g>
	</g>
	<g>
	</g>
	<g>
	</g>
	<g>
	</g>
	<g>
	</g>
	<g>
	</g>
	<g>
	</g>
	<g>
	</g>
	<g>
	</g>
	<g>
	</g>
	<g>
	</g>
	<g>
	</g>
	<g>
	</g>
	<g>
	</g>
	<g>
	</g>
</g>
</svg>
